<?xml version="1.0" encoding="utf-8"?>
<!-- Generator: Adobe Illustrator 16.0.3, SVG Export Plug-In . SVG Version: 6.00 Build 0)  -->
<!DOCTYPE svg PUBLIC "-//W3C//DTD SVG 1.1//EN" "http://www.w3.org/Graphics/SVG/1.1/DTD/svg11.dtd">
<svg version="1.1" id="Layer_1" xmlns="http://www.w3.org/2000/svg" xmlns:xlink="http://www.w3.org/1999/xlink" x="0px" y="0px"
	 width="140px" height="140px" viewBox="0 0 140 140" enable-background="new 0 0 140 140" xml:space="preserve">
<path fill="#262726" d="M70.003,0C31.401,0,0,31.404,0,70c0,38.523,31.329,69.914,69.842,70c0.047,0,0.08,0,0.117,0h0.044
	C108.601,140,140,108.601,140,70C140,31.401,108.601,0,70.003,0z M117.55,115.157c-6.044-5.295-16.42-11.541-21.722-13.453
	c-6.465-2.326-8.266-3.598-9.642-5.402c-0.027-0.043-0.669-1.034-0.715-5.708c-0.03-1.807,0.051-3.492,0.103-4.354
	c1.003-1.429,3.731-5.439,4.797-8.281c1.003-2.672,1.393-6.984,1.516-8.978c1.195-0.96,3.173-2.822,3.908-5.118
	c0.817-2.627,1.657-7.461,0.948-9.975c-0.431-1.537-1.559-2.447-2.863-2.821c0.022-1.169,0.04-2.65,0.092-3.955
	c0.057-1.738,0.033-10.744-6.261-17.264c-4.198-4.342-10.162-6.541-17.75-6.541c-7.588,0-13.559,2.202-17.753,6.55
	c-6.3,6.525-6.309,15.521-6.248,17.258c0.044,1.302,0.071,2.78,0.08,3.949c-1.305,0.372-2.43,1.28-2.855,2.815
	c-0.718,2.52,0.123,7.356,0.947,9.989c0.727,2.291,2.705,4.153,3.901,5.11c0.123,1.992,0.513,6.302,1.516,8.98
	c1.071,2.842,3.792,6.846,4.801,8.276c0.047,0.854,0.126,2.529,0.108,4.327c-0.056,4.698-0.7,5.696-0.729,5.733
	c-1.373,1.811-3.173,3.082-9.633,5.405c-5.265,1.897-15.621,8.124-21.686,13.407C11.252,103.342,4.395,87.454,4.395,70
	c0-36.175,29.433-65.608,65.608-65.608c36.165,0,65.6,29.43,65.6,65.608C135.603,87.48,128.737,103.383,117.55,115.157z"/>
</svg>
