<?xml version="1.0" encoding="utf-8"?>
<!-- Generator: Adobe Illustrator 16.0.3, SVG Export Plug-In . SVG Version: 6.00 Build 0)  -->
<!DOCTYPE svg PUBLIC "-//W3C//DTD SVG 1.1//EN" "http://www.w3.org/Graphics/SVG/1.1/DTD/svg11.dtd">
<svg version="1.1" id="Layer_1" xmlns="http://www.w3.org/2000/svg" xmlns:xlink="http://www.w3.org/1999/xlink" x="0px" y="0px"
	 width="37px" height="41px" viewBox="0 0 37 41" enable-background="new 0 0 37 41" xml:space="preserve">
<g>
	<path fill="#010101" d="M19.775,4.59V0.268C19.775,0.12,19.203,0,18.499,0c-0.705,0-1.276,0.12-1.276,0.268V4.59
		C7.618,5.241,0,13.132,0,22.764C0,32.819,8.298,41,18.5,41C28.701,41,37,32.819,37,22.764C37,13.132,29.383,5.241,19.775,4.59z
		 M18.5,38.483c-8.794,0-15.948-7.052-15.948-15.72c0-8.669,7.154-15.722,15.948-15.722c8.793,0,15.948,7.052,15.948,15.722
		C34.447,31.432,27.293,38.483,18.5,38.483z"/>
	<path fill="#010101" d="M24.619,13.811l-5.063,6.33c-0.336-0.106-0.686-0.179-1.057-0.179c-1.915,0-3.473,1.536-3.473,3.423
		c0,1.889,1.558,3.424,3.473,3.424c1.917,0,3.473-1.535,3.473-3.424c0-0.599-0.17-1.153-0.445-1.644
		c0.004-0.006,0.008-0.01,0.012-0.015l5.088-6.361c0.434-0.546,0.338-1.337-0.215-1.766C25.857,13.17,25.055,13.266,24.619,13.811z
		 M18.5,24.598c-0.679,0-1.231-0.543-1.231-1.213c0-0.668,0.552-1.213,1.231-1.213c0.68,0,1.231,0.545,1.231,1.213
		C19.73,24.055,19.18,24.598,18.5,24.598z"/>
</g>
</svg>
