<?xml version="1.0" encoding="utf-8"?>
<!-- Generator: Adobe Illustrator 16.0.3, SVG Export Plug-In . SVG Version: 6.00 Build 0)  -->
<!DOCTYPE svg PUBLIC "-//W3C//DTD SVG 1.1//EN" "http://www.w3.org/Graphics/SVG/1.1/DTD/svg11.dtd">
<svg version="1.1" id="Layer_1" xmlns="http://www.w3.org/2000/svg" xmlns:xlink="http://www.w3.org/1999/xlink" x="0px" y="0px"
	 width="60px" height="41px" viewBox="0 0 60 41" enable-background="new 0 0 60 41" xml:space="preserve">
<g>
	<path fill="#010101" d="M31.203,1.522c-10.906,0-19.779,8.854-19.779,19.738S20.297,41,31.203,41
		c10.905,0,19.778-8.855,19.778-19.739S42.108,1.522,31.203,1.522z M31.203,38.74c-9.658,0-17.514-7.841-17.514-17.479
		c0-9.638,7.856-17.479,17.514-17.479c9.658,0,17.515,7.841,17.515,17.479C48.718,30.899,40.861,38.74,31.203,38.74z"/>
	<path fill="#010101" d="M31.231,7.571c-7.549,0-13.69,6.129-13.69,13.662s6.141,13.662,13.69,13.662
		c7.549,0,13.69-6.129,13.69-13.662S38.78,7.571,31.231,7.571z M31.231,32.636c-6.3,0-11.426-5.114-11.426-11.402
		c0-6.287,5.126-11.402,11.426-11.402c6.301,0,11.426,5.115,11.426,11.402C42.657,27.521,37.532,32.636,31.231,32.636z"/>
	<path fill="#010101" d="M40.313,17.916c-0.172-0.436-0.585-0.717-1.054-0.717c-0.142,0-0.281,0.026-0.414,0.078
		c-0.281,0.11-0.503,0.323-0.624,0.601c-0.12,0.276-0.126,0.583-0.016,0.863c0.372,0.95,0.563,2,0.563,3.124
		c0,1.746-0.75,3.237-2.226,4.435c-1.168,0.948-2.355,1.348-2.367,1.351c-0.288,0.095-0.522,0.294-0.659,0.563
		c-0.138,0.27-0.161,0.575-0.067,0.863c0.152,0.466,0.585,0.779,1.075,0.779c0.121,0,0.239-0.019,0.352-0.056
		c0.063-0.021,1.556-0.512,3.046-1.705c2.035-1.631,3.111-3.785,3.111-6.229C41.032,20.459,40.789,19.13,40.313,17.916z"/>
	<path fill="#010101" d="M34.109,14.477c0.013,0.005,1.305,0.531,2.501,1.784c0.217,0.225,0.507,0.349,0.818,0.349
		c0.293,0,0.571-0.111,0.782-0.313c0.218-0.208,0.343-0.489,0.35-0.79c0.008-0.302-0.104-0.589-0.313-0.808
		c-1.576-1.648-3.245-2.301-3.315-2.327c-0.131-0.051-0.268-0.077-0.408-0.077c-0.468,0-0.882,0.282-1.053,0.719
		C33.245,13.593,33.531,14.248,34.109,14.477z"/>
	<path fill="#010101" d="M59.968,0.855C59.841,0.352,59.39,0,58.87,0c-0.093,0-0.186,0.012-0.277,0.034
		c-0.167,0.043-1.683,0.446-3.225,1.49c-2.2,1.488-3.363,3.54-3.363,5.934v13.891c0,0.58,0.443,0.956,1.13,0.956h2.445
		c0.655,0,1.132-0.43,1.132-1.021c0-0.592-0.477-1.021-1.132-1.021h-1.16V7.458c0-1.677,0.738-2.998,2.257-4.039
		c0.295-0.201,0.586-0.373,0.86-0.519v35.718c0,0.601,0.564,1.13,1.207,1.13c0.644,0,1.208-0.529,1.208-1.13V1.827
		c0-0.092-0.017-0.18-0.041-0.266C60.001,1.345,60.028,1.1,59.968,0.855z"/>
	<path fill="#010101" d="M10.125,1.87c-0.663,0-1.2,0.536-1.2,1.198c0,1.716-0.001,3.737-0.045,5.933H6.886L6.882,3.354
		c0-0.661-0.537-1.13-1.2-1.13h0c-0.663,0-1.2,0.518-1.199,1.179l0.004,5.598H2.412C2.425,8.386,2.447,7.737,2.47,7.059
		c0.041-1.193,0.087-2.524,0.09-3.946C2.562,2.45,2.027,1.954,1.364,1.954c-0.001,0-0.002,0-0.003,0c-0.661,0-1.198,0.491-1.2,1.152
		C0.158,4.49,0.114,5.723,0.072,6.956c-0.144,4.213-0.248,7.258,1.508,9.119c0.713,0.757,1.67,1.23,2.9,1.436L4.334,38.722
		c-0.004,0.661,0.529,1.18,1.192,1.18c0.003,0,0.006,0,0.008,0c0.659,0,1.195-0.502,1.2-1.16L6.88,17.553
		c2.608-0.406,4.202-2.497,4.324-5.801c0.121-3.272,0.121-6.401,0.121-8.685C11.325,2.406,10.789,1.87,10.125,1.87z M5.794,15.239
		c-1.181-0.031-1.988-0.287-2.466-0.795c-0.6-0.636-0.834-1.778-0.903-3.274h6.397c-0.005,0.166-0.01,0.328-0.017,0.496
		C8.716,14.085,7.701,15.289,5.794,15.239z"/>
</g>
</svg>
