<?xml version="1.0" encoding="utf-8"?>
<!-- Generator: Adobe Illustrator 16.0.3, SVG Export Plug-In . SVG Version: 6.00 Build 0)  -->
<!DOCTYPE svg PUBLIC "-//W3C//DTD SVG 1.1//EN" "http://www.w3.org/Graphics/SVG/1.1/DTD/svg11.dtd">
<svg version="1.1" id="Layer_1" xmlns="http://www.w3.org/2000/svg" xmlns:xlink="http://www.w3.org/1999/xlink" x="0px" y="0px"
	 width="39px" height="29px" viewBox="0 0 39 29" enable-background="new 0 0 39 29" xml:space="preserve">
<g>
	<path fill="#010101" d="M13.14,24.149c0.195-0.108,0.261-0.302,0.277-0.357c0.066-0.238-0.023-0.547-0.313-0.694
		c-0.073-0.052-0.16-0.088-0.254-0.103c-0.327-0.048-0.63,0.176-0.68,0.502c0,0.005-0.001,0.01-0.001,0.015
		c-0.058,0.321,0.153,0.632,0.475,0.692C12.864,24.246,13.024,24.213,13.14,24.149z"/>
	<path fill="#010101" d="M11.11,24.015c0.133,0.019,0.263-0.008,0.373-0.068c0.158-0.088,0.275-0.245,0.303-0.438
		c0.046-0.327-0.18-0.63-0.507-0.677c-0.144-0.02-0.289-0.04-0.432-0.058c-0.327-0.04-0.626,0.19-0.667,0.52
		c-0.041,0.326,0.191,0.625,0.519,0.665C10.835,23.977,10.972,23.994,11.11,24.015z"/>
	<path fill="#010101" d="M38.17,2.674c-0.33-0.004-0.601,0.26-0.604,0.59l-0.302,24.308c-1.047-0.529-2.957-1.387-5.276-1.931
		c-4.66-1.095-8.696-0.354-11.672,2.141c-0.252,0.213-0.285,0.589-0.072,0.842c0.211,0.253,0.587,0.286,0.841,0.074
		c6.491-5.445,16.314,0.297,16.43,0.365c0.024,0.015,0.053,0.012,0.078,0.022c0.04,0.019,0.085,0.026,0.13,0.036
		c0.036,0.007,0.071,0.023,0.107,0.022c0.005,0,0.008,0.003,0.013,0.003c0.107,0.003,0.209-0.024,0.296-0.073
		c0.182-0.101,0.306-0.293,0.309-0.516l0.313-25.28C38.763,2.948,38.499,2.678,38.17,2.674z"/>
	<path fill="#010101" d="M18.955,27.714c-3.42-2.226-7.593-3.017-12.068-2.29c-2.655,0.432-4.644,1.258-5.419,1.613L1.77,2.677
		c0.004-0.33-0.26-0.6-0.59-0.604c-0.33-0.004-0.601,0.26-0.605,0.589L0.263,27.941c-0.005,0.331,0.26,0.601,0.589,0.605
		c0.108,0.001,0.208-0.025,0.296-0.074c0.064-0.035,0.109-0.094,0.156-0.149c0.116,0.015,0.236,0.007,0.348-0.051
		c0.088-0.046,8.978-4.551,16.652,0.441c0.191,0.124,0.428,0.126,0.615,0.023c0.083-0.046,0.156-0.113,0.212-0.197
		C19.31,28.264,19.232,27.893,18.955,27.714z"/>
	<path fill="#010101" d="M19.609,12.188c0.151,0.043,0.317,0.024,0.455-0.051c0.138-0.076,0.242-0.207,0.286-0.357
		c0.043-0.151,0.024-0.317-0.052-0.455c-0.076-0.137-0.206-0.241-0.357-0.285c-0.151-0.043-0.317-0.025-0.455,0.051
		c-0.137,0.076-0.24,0.206-0.285,0.357c-0.043,0.151-0.024,0.317,0.051,0.454C19.328,12.04,19.459,12.145,19.609,12.188z"/>
	<path fill="#010101" d="M20.572,26.982c0.052-0.052,5.274-5.158,13.658-2.31c0.168,0.057,0.34,0.036,0.482-0.043
		c0.125-0.068,0.227-0.184,0.276-0.33c0.03-0.09,0.033-0.18,0.021-0.268c0.032-0.072,0.065-0.146,0.066-0.229l0.282-22.852
		c0.005-0.331-0.26-0.601-0.59-0.604c-0.018,0-0.032,0.008-0.049,0.01c-0.052-0.021-0.102-0.043-0.158-0.049
		c-3.345-0.337-6.787-0.201-9.449,0.374c-0.04-0.002-0.079-0.012-0.12-0.006c-2.588,0.395-4.42,1.547-5.148,2.073
		C13.804-0.688,4.656,0.28,4.27,0.323C3.941,0.359,3.706,0.654,3.742,0.982C3.744,1,3.754,1.015,3.758,1.033
		C3.752,1.066,3.737,1.095,3.737,1.13L3.463,23.293c-0.002,0.172,0.071,0.337,0.199,0.452c0.128,0.114,0.301,0.169,0.472,0.147
		c0.023-0.003,2.3-0.28,5.177-0.07c0.12,0.009,0.234-0.018,0.331-0.072c0.171-0.095,0.293-0.271,0.308-0.479
		c0.024-0.328-0.224-0.615-0.553-0.64c-2.07-0.151-3.817-0.063-4.731,0.011L4.928,1.465c2.006-0.149,9.422-0.477,14.339,2.328
		c0.002,0.001,0.004,0,0.006,0.002l-0.07,5.669c-0.004,0.33,0.26,0.601,0.589,0.605c0.108,0.001,0.208-0.026,0.296-0.074
		c0.182-0.101,0.306-0.293,0.308-0.516l0.072-5.708c0.568-0.42,2.282-1.545,4.704-1.915c0.002,0,0.004-0.002,0.007-0.002
		c0.058,0.005,0.113,0.011,0.173-0.002c1.179-0.255,4.37-0.787,8.806-0.378l-0.271,21.841c-4.396-1.297-7.915-0.552-10.137,0.34
		c-1.743,0.699-2.941,1.567-3.554,2.071l0.148-11.962c0.004-0.33-0.261-0.6-0.59-0.604s-0.6,0.26-0.604,0.589l-0.149,12.095
		c-1.242-1.01-2.794-1.812-4.667-2.361c-0.317-0.094-0.648,0.088-0.742,0.405c-0.093,0.315,0.088,0.647,0.405,0.74
		c2.037,0.599,3.67,1.491,4.857,2.651c0.134,0.133,0.314,0.182,0.488,0.162c0.072,0.031,0.151,0.051,0.235,0.052
		c0.107,0.001,0.208-0.026,0.296-0.074c0.108-0.059,0.184-0.157,0.237-0.268C20.277,27.161,20.445,27.109,20.572,26.982z"/>
</g>
</svg>
