<?xml version="1.0" encoding="utf-8"?>
<!-- Generator: Adobe Illustrator 16.0.3, SVG Export Plug-In . SVG Version: 6.00 Build 0)  -->
<!DOCTYPE svg PUBLIC "-//W3C//DTD SVG 1.1//EN" "http://www.w3.org/Graphics/SVG/1.1/DTD/svg11.dtd">
<svg version="1.1" id="Layer_1" xmlns="http://www.w3.org/2000/svg" xmlns:xlink="http://www.w3.org/1999/xlink" x="0px" y="0px"
	 width="91.659px" height="33.835px" viewBox="0 0 91.659 33.835" enable-background="new 0 0 91.659 33.835" xml:space="preserve">
<g>
	<defs>
		<rect id="SVGID_1_" width="91.66" height="33.835"/>
	</defs>
	<clipPath id="SVGID_2_">
		<use xlink:href="#SVGID_1_"  overflow="visible"/>
	</clipPath>
	<path clip-path="url(#SVGID_2_)" fill="#FFFFFF" d="M0,8.546c0.919-0.134,2.054-0.233,3.273-0.233c2.104,0,3.54,0.434,4.575,1.303
		c1.102,0.884,1.77,2.236,1.77,4.139c0,2.021-0.685,3.507-1.753,4.476c-1.119,1.019-2.906,1.536-5.093,1.536
		c-1.185,0-2.087-0.067-2.772-0.149V8.546z M2.054,18.097c0.284,0.05,0.718,0.05,1.136,0.05c2.671,0.018,4.257-1.469,4.257-4.324
		c0.017-2.471-1.419-3.908-3.99-3.908c-0.651,0-1.102,0.051-1.403,0.118V18.097z"/>
	<path clip-path="url(#SVGID_2_)" fill="#FFFFFF" d="M18.882,15.509c0,2.988-2.103,4.325-4.173,4.325
		c-2.288,0-4.075-1.57-4.075-4.19c0-2.673,1.754-4.309,4.208-4.309C17.263,11.335,18.882,13.037,18.882,15.509 M12.755,15.592
		c0,1.57,0.785,2.756,2.021,2.756c1.168,0,1.986-1.136,1.986-2.788c0-1.27-0.568-2.739-1.97-2.739
		C13.339,12.821,12.755,14.24,12.755,15.592"/>
	<path clip-path="url(#SVGID_2_)" fill="#FFFFFF" d="M20.401,14.14c0-1.103-0.017-1.903-0.067-2.621h1.77l0.084,1.536h0.049
		c0.401-1.136,1.352-1.72,2.238-1.72c0.2,0,0.317,0.017,0.484,0.05v1.92c-0.183-0.034-0.367-0.05-0.618-0.05
		c-0.968,0-1.653,0.617-1.836,1.554c-0.034,0.182-0.05,0.4-0.05,0.616v4.225h-2.054V14.14z"/>
	<path clip-path="url(#SVGID_2_)" fill="#FFFFFF" d="M32.337,17.697c0,0.735,0.034,1.452,0.134,1.953h-1.853l-0.151-0.901h-0.05
		c-0.484,0.634-1.335,1.086-2.404,1.086c-1.637,0-2.554-1.186-2.554-2.421c0-2.038,1.819-3.089,4.824-3.073v-0.133
		c0-0.534-0.216-1.419-1.652-1.419c-0.802,0-1.637,0.249-2.188,0.6l-0.401-1.335c0.602-0.367,1.654-0.718,2.939-0.718
		c2.605,0,3.356,1.653,3.356,3.44V17.697z M30.334,15.676c-1.453-0.017-2.839,0.284-2.839,1.52c0,0.801,0.518,1.167,1.169,1.167
		c0.835,0,1.419-0.534,1.619-1.119c0.051-0.15,0.051-0.299,0.051-0.45V15.676z"/>
	<path clip-path="url(#SVGID_2_)" fill="#FFFFFF" d="M41.837,7.795v9.568c0,0.833,0.033,1.735,0.067,2.286h-1.82l-0.1-1.285H39.95
		c-0.484,0.9-1.469,1.47-2.638,1.47c-1.953,0-3.489-1.654-3.489-4.158c-0.017-2.722,1.686-4.341,3.64-4.341
		c1.118,0,1.92,0.45,2.287,1.051h0.033V7.795H41.837z M39.783,14.908c0-0.167-0.017-0.385-0.05-0.552
		c-0.184-0.785-0.835-1.435-1.769-1.435c-1.32,0-2.055,1.169-2.055,2.671c0,1.503,0.735,2.587,2.038,2.587
		c0.835,0,1.569-0.567,1.77-1.453c0.049-0.183,0.066-0.383,0.066-0.601V14.908z"/>
	<path clip-path="url(#SVGID_2_)" fill="#FFFFFF" d="M49.85,19.399c-0.435,0.2-1.285,0.417-2.304,0.417
		c-2.538,0-4.191-1.636-4.191-4.157c0-2.439,1.67-4.324,4.525-4.324c0.752,0,1.52,0.166,1.986,0.367l-0.368,1.552
		c-0.333-0.166-0.816-0.317-1.552-0.317c-1.568,0-2.505,1.152-2.488,2.639c0,1.669,1.085,2.62,2.488,2.62
		c0.701,0,1.219-0.149,1.619-0.316L49.85,19.399z"/>
	<path clip-path="url(#SVGID_2_)" fill="#FFFFFF" d="M57.513,17.697c0,0.735,0.034,1.452,0.134,1.953h-1.853l-0.151-0.901h-0.05
		c-0.484,0.634-1.335,1.086-2.404,1.086c-1.637,0-2.555-1.186-2.555-2.421c0-2.038,1.82-3.089,4.825-3.073v-0.133
		c0-0.534-0.216-1.419-1.653-1.419c-0.801,0-1.636,0.249-2.187,0.6l-0.401-1.335c0.602-0.367,1.654-0.718,2.938-0.718
		c2.605,0,3.356,1.653,3.356,3.44V17.697z M55.51,15.676c-1.453-0.017-2.839,0.284-2.839,1.52c0,0.801,0.518,1.167,1.169,1.167
		c0.835,0,1.419-0.534,1.619-1.119c0.051-0.15,0.051-0.299,0.051-0.45V15.676z"/>
	<path clip-path="url(#SVGID_2_)" fill="#FFFFFF" d="M32.943,29.029c0.416,0.262,1.232,0.555,1.91,0.555
		c0.832,0,1.201-0.354,1.201-0.848c0-0.507-0.308-0.754-1.232-1.094c-1.463-0.492-2.064-1.293-2.064-2.187
		c0-1.325,1.094-2.341,2.834-2.341c0.832,0,1.556,0.199,2.003,0.446l-0.385,1.325c-0.309-0.186-0.924-0.432-1.587-0.432
		c-0.678,0-1.047,0.338-1.047,0.801c0,0.478,0.354,0.692,1.309,1.048c1.371,0.477,1.987,1.17,2.002,2.279
		c0,1.37-1.062,2.356-3.049,2.356c-0.909,0-1.726-0.216-2.28-0.523L32.943,29.029z"/>
	<path clip-path="url(#SVGID_2_)" fill="#FFFFFF" d="M39.289,25.518c0-0.862-0.031-1.587-0.062-2.233h1.617l0.093,1.109h0.046
		c0.354-0.586,1.032-1.278,2.311-1.278c0.986,0,1.756,0.555,2.079,1.386h0.031c0.261-0.416,0.57-0.724,0.908-0.939
		c0.432-0.293,0.909-0.446,1.54-0.446c1.233,0,2.496,0.848,2.496,3.25v4.42h-1.849v-4.143c0-1.249-0.432-1.987-1.341-1.987
		c-0.646,0-1.123,0.461-1.324,1.002c-0.062,0.169-0.092,0.415-0.092,0.631v4.497h-1.849v-4.344c0-1.048-0.416-1.786-1.293-1.786
		c-0.709,0-1.187,0.555-1.372,1.063c-0.061,0.199-0.092,0.415-0.092,0.631v4.436h-1.848V25.518z"/>
	<path clip-path="url(#SVGID_2_)" fill="#FFFFFF" d="M58.016,28.983c0,0.679,0.031,1.34,0.124,1.802h-1.71l-0.139-0.832h-0.046
		c-0.447,0.587-1.232,1.002-2.218,1.002c-1.511,0-2.357-1.094-2.357-2.233c0-1.879,1.679-2.85,4.451-2.835v-0.121
		c0-0.494-0.2-1.311-1.524-1.311c-0.74,0-1.51,0.23-2.018,0.554l-0.37-1.231c0.555-0.339,1.525-0.662,2.711-0.662
		c2.403,0,3.096,1.525,3.096,3.173V28.983z M56.168,27.12c-1.34-0.017-2.619,0.261-2.619,1.4c0,0.74,0.479,1.079,1.078,1.079
		c0.77,0,1.31-0.492,1.494-1.031c0.047-0.14,0.047-0.277,0.047-0.417V27.12z"/>
	<path clip-path="url(#SVGID_2_)" fill="#FFFFFF" d="M61.758,26.581h0.031c0.185-0.293,0.4-0.616,0.585-0.878l1.833-2.419h2.28
		l-2.789,3.065l3.173,4.436h-2.325l-2.156-3.312l-0.632,0.756v2.556h-1.895V19.85h1.895V26.581z"/>
	<path clip-path="url(#SVGID_2_)" fill="#FFFFFF" d="M74.265,28.537c0,0.894,0.03,1.632,0.061,2.248h-1.646l-0.093-1.123H72.54
		c-0.324,0.521-1.064,1.293-2.42,1.293s-2.603-0.816-2.603-3.265v-4.406h1.895v4.081c0,1.249,0.4,2.05,1.402,2.05
		c0.771,0,1.262-0.524,1.448-1.017c0.076-0.155,0.106-0.37,0.106-0.586v-4.528h1.896V28.537z"/>
	<path clip-path="url(#SVGID_2_)" fill="#EFC060" d="M75.817,29.738c0-0.709,0.493-1.218,1.172-1.218c0.692,0,1.17,0.493,1.17,1.218
		c0,0.692-0.462,1.217-1.187,1.217C76.296,30.955,75.817,30.431,75.817,29.738"/>
	<path clip-path="url(#SVGID_2_)" fill="#EFC060" d="M79.529,25.779c0-0.986-0.031-1.786-0.062-2.495h1.663l0.093,1.155h0.031
		c0.555-0.848,1.433-1.324,2.572-1.324c1.726,0,3.158,1.479,3.158,3.819c0,2.711-1.71,4.021-3.42,4.021
		c-0.94,0-1.726-0.4-2.11-1.002h-0.031v3.882h-1.895V25.779z M81.424,27.643c0,0.186,0.016,0.355,0.047,0.524
		c0.2,0.771,0.861,1.325,1.679,1.325c1.201,0,1.91-1.002,1.91-2.48c0-1.324-0.647-2.402-1.864-2.402
		c-0.785,0-1.509,0.569-1.71,1.401c-0.03,0.152-0.062,0.323-0.062,0.477V27.643z"/>
	<rect x="88.385" y="19.85" clip-path="url(#SVGID_2_)" fill="#EFC060" width="1.896" height="10.937"/>
	<path clip-path="url(#SVGID_2_)" fill="#EFC060" d="M74.037,2.416c2.307,0.561,0.401,2.315,7.234-1.138
		c6.832-3.453,12.05,0.624,9.896,5.864c-1.758,4.276-3.763,5.407-5.003,5.681c-0.363,1.252-0.524,4.933-0.521,6.805
		c0,0-1.916-6.689,1.563-9.45c0,0-0.439,0.778-0.874,2.097c2.285-0.716,3.519-2.557,3.934-6.355
		c0.439-4.057-4.229-5.265-8.354-3.818c-4.127,1.442-4.539,2.689-7.015,1.713c-2.481-0.97-5.477,1.111-5.107,5.832
		c0.365,4.715,4.29,5.166,4.29,5.166c-2.752-0.558-5.479-2.841-5.326-6.985C68.907,3.688,71.726,1.857,74.037,2.416"/>
	<path clip-path="url(#SVGID_2_)" fill="#EFC060" d="M77.47,10.143c-3.261,3.072-4.75-1.322-4.75-1.322
		c2.422,3.952,4.941-0.296,4.941-0.296c3.939,6.115,10.202-1.889,10.202-1.889C81.022,15.949,77.47,10.143,77.47,10.143"/>
	<path clip-path="url(#SVGID_2_)" fill="#EFC060" d="M74.788,14.051c-2.237-0.227-3.044-2.06-3.044-2.06
		c1.083,1.155,2.544,1.321,3.053,1.338c-0.017-0.964-0.116-1.61-0.116-1.61c1.395,2.659,0.544,7.382,0.544,7.382
		c5.334-2.902,9.27,0.361,9.27,0.361c-5.75-2.191-8.832,0.568-8.832,0.568c2.159,1.477,7.316,0.808,7.316,0.808
		c-6.946,1.983-8.991-0.354-8.991-0.354C74.693,19.046,74.747,15.36,74.788,14.051"/>
</g>
</svg>
