<?xml version="1.0" encoding="utf-8"?>
<!-- Generator: Adobe Illustrator 16.0.3, SVG Export Plug-In . SVG Version: 6.00 Build 0)  -->
<!DOCTYPE svg PUBLIC "-//W3C//DTD SVG 1.1//EN" "http://www.w3.org/Graphics/SVG/1.1/DTD/svg11.dtd">
<svg version="1.1" id="Layer_1" xmlns="http://www.w3.org/2000/svg" xmlns:xlink="http://www.w3.org/1999/xlink" x="0px" y="0px"
	 viewBox="0 0 33 29" enable-background="new 0 0 33 29" xml:space="preserve">
<path d="M24.164,0c-4.115,0-6.021,1.905-7.621,3.856l-0.121,0.146l-0.12-0.146C14.69,1.905,12.769,0,8.643,0
	C5.019,0,0,3.431,0,9.875c0,6.286,4.099,9.469,9.335,13.533c1.454,1.131,2.957,2.301,4.541,3.656L16.424,29l2.574-1.959
	c1.58-1.354,3.127-2.559,4.492-3.617c5.206-4.051,9.316-7.25,9.316-13.547C32.809,3.431,27.787,0,24.164,0z M16.424,26.821
	l-1.417-1.075c-1.608-1.377-3.12-2.552-4.583-3.688C5.211,18.01,1.766,15.336,1.766,9.874c0-5.768,4.479-8.161,6.877-8.161
	c3.643,0,5.092,1.767,6.495,3.477c0.208,0.253,0.41,0.499,0.61,0.729l0.674,0.771l0.675-0.771c0.203-0.233,0.408-0.483,0.63-0.754
	c1.385-1.697,2.813-3.451,6.438-3.451c2.397,0,6.877,2.395,6.877,8.161c-0.002,5.475-3.433,8.146-8.625,12.186
	c-1.297,1.01-2.912,2.264-4.563,3.674L16.424,26.821z"/>
</svg>
