<?xml version="1.0" encoding="utf-8"?>
<!-- Generator: Adobe Illustrator 16.0.3, SVG Export Plug-In . SVG Version: 6.00 Build 0)  -->
<!DOCTYPE svg PUBLIC "-//W3C//DTD SVG 1.1//EN" "http://www.w3.org/Graphics/SVG/1.1/DTD/svg11.dtd">
<svg version="1.1" id="Layer_1" xmlns="http://www.w3.org/2000/svg" xmlns:xlink="http://www.w3.org/1999/xlink" x="0px" y="0px"
	 viewBox="0 0 33 29" enable-background="new 0 0 33 29" xml:space="preserve">
<path fill="#FFFFFF" d="M24.261,0c-4.115,0-6.021,1.905-7.621,3.856l-0.121,0.146l-0.119-0.146C14.786,1.905,12.865,0,8.739,0
	C5.115,0,0.096,3.431,0.096,9.875c0,6.287,4.1,9.469,9.335,13.533c1.454,1.131,2.957,2.301,4.541,3.656L16.52,29l2.575-1.959
	c1.58-1.354,3.127-2.558,4.492-3.617c5.206-4.051,9.317-7.25,9.317-13.547C32.904,3.431,27.884,0,24.261,0z M16.52,26.821
	l-1.417-1.075c-1.607-1.377-3.119-2.552-4.583-3.688C5.307,18.01,1.862,15.336,1.862,9.874c0-5.768,4.479-8.161,6.877-8.161
	c3.643,0,5.092,1.767,6.495,3.477c0.208,0.253,0.409,0.499,0.609,0.729l0.674,0.771l0.676-0.771
	c0.204-0.233,0.409-0.483,0.631-0.754c1.384-1.697,2.813-3.451,6.438-3.451c2.397,0,6.877,2.395,6.877,8.161
	c-0.002,5.475-3.433,8.146-8.625,12.186c-1.297,1.009-2.912,2.263-4.563,3.673L16.52,26.821z"/>
</svg>
